<?xml version="1.0" encoding="utf-8"?>
<!-- Generator: Adobe Illustrator 25.3.1, SVG Export Plug-In . SVG Version: 6.00 Build 0)  -->
<svg version="1.1" xmlns="http://www.w3.org/2000/svg" xmlns:xlink="http://www.w3.org/1999/xlink" x="0px" y="0px"
	 viewBox="0 0 1280 1024" style="enable-background:new 0 0 1280 1024;" xml:space="preserve">
<style type="text/css">
	.st0{fill:url(#SVGID_1_);}
	.st1{fill:none;stroke:#95C11F;stroke-width:2.4657;stroke-miterlimit:10;}
	.st2{fill:#A29F9E;}
	.st3{fill:#D9D9D9;}
	.st4{fill:#585453;}
	.st5{fill:#BFBCBC;}
	.st6{fill:none;stroke:#95C11F;stroke-width:2.4657;stroke-miterlimit:10;stroke-dasharray:3.4528,3.4528;}
	.st7{fill:#BFBCBC;stroke:#BFBCBC;stroke-width:4.8826;stroke-linecap:round;stroke-miterlimit:10;}
	.st8{fill:#FFFFFF;stroke:#BFBCBC;stroke-width:4.8826;stroke-linecap:round;stroke-miterlimit:10;}
	.st9{fill:none;stroke:#BFBCBC;stroke-width:4.8826;stroke-linecap:round;stroke-miterlimit:10;}
	.st10{fill:#95C11F;stroke:#95C11F;stroke-width:6.5102;stroke-miterlimit:10;}
	.st11{fill:none;}
	.st12{fill:#1E1E1C;}
	.st13{font-family:"Roboto", sans-serif}
	.st14{font-size:32px;}
	.st15{font-family:"Roboto", sans-serif}
#alturas{
	opacity:0; transition:all ease 0.25s
	}
	svg:hover #alturas{opacity:1; transition:all ease 0.25s}

</style>
<g id="Capa_1">
	<linearGradient id="SVGID_1_" gradientUnits="userSpaceOnUse" x1="595.9442" y1="247.9412" x2="595.9442" y2="458.278">
		<stop  offset="0.6608" style="stop-color:#E0EDBE"/>
		<stop  offset="1" style="stop-color:#FFFFFF"/>
		<stop  offset="1" style="stop-color:#000000"/>
	</linearGradient>
	<rect x="358.7" y="237.2" class="st0" width="474.6" height="205.1"/>
	<polyline class="st1" points="852.4,237.2 876.3,237.2 876.3,339.8 876.3,438.8 852.4,438.8 	"/>
	<polyline class="st1" points="876.3,339.8 896.3,339.8 896.3,100.4 805.8,100.4 	"/>
	<line class="st1" x1="420.9" y1="832.1" x2="831.7" y2="832.1"/>
	<g>
		<path class="st2" d="M775.5,565.8c-4.4,0.5-7.8,2.8-7.8,9s1.5,9.1,0,12.4s-0.7,0.7-6.3,3.3c-5.5,2.6-6.6,1.1-8.5,5.5
			c-1.8,4.4,3.7,4-1.8,4.4s-6.3-4.4-9.6-2.2c-3.3,2.2-6.6-2.6-9.2-2.6c-2.6,0-2.2,4.1-2.2,4.8c0,0.7,1.8,2.9,3.7,5.5
			c1.8,2.6,1.1-0.4,0,4.8s-3.3,9.9,0,17.7c3.3,7.7,4,7.4,4,10.3c0,2.9-3.3,11.8-2.2,17.3s14.8,36.4,17.1,41.6
			c2.4,5.2,5.3,10.7,6.4,12.5s5.3-1.8,16.3-2.6c10.9-0.7,22.7,6.6,22.7,6.6s7.4-12.5,7.7-17.3c0.4-4.8-0.4-21.5,2.6-24.6
			c2.9-3,5.2-15.9,5.2-20.3c0-4.4,2.1-6.6,3.5-13.6c1.3-7-0.2-8.8,0-10.3s2.8-4,2.8-4v-4.4c0,0,1,3.7-2.8-2.8s-13.4-16.4-16.3-17.5
			c-2.9-1.1-5.2-7.4-7-7.4s-4.8-0.1-5.5-3s0-9.2-1.5-14.2C785.3,569.8,782.2,565.1,775.5,565.8z"/>
		<path class="st3" d="M783,589.6c0.7-2.1,0.4-11,0-12.4s-3.9-9.9-7.3-9.2c-3.4,0.7-6.7,2.9-6,6.6c0.7,3.7-0.2,6.6,2.7,7.4
			c2.9,0.7,4.5,4,3.3,5.2C774.5,588.2,783,589.6,783,589.6z"/>
		<path class="st3" d="M731.6,595.6c0,0-0.8,3.9-4.5,3.8c-3.8-0.1-10.4,0.4-10.4,0.4l7.3-2.9l-5.4-2.8c0,0-0.2-1.1,4.7-0.9
			C728.2,593.6,731.6,595.6,731.6,595.6z"/>
		<path class="st3" d="M814.8,617.2c3.3-0.7,7.5-0.7,8.5,0c1.1,0.7-2.6,1.5-4.3,1.8s5.8,1.8,4.4,3.3c-1.3,1.5-5.1,2.6-7.1,3.3
			c-2,0.7-3.1-0.7-4.9-2.2C809.6,622,814.8,617.2,814.8,617.2z"/>
		<path class="st4" d="M774.1,590.5c3.6,0.4,8.9-2.3,11.2,0c2.3,2.3,7.8,5.2,7.5,12.9c-0.4,7.7,2.6,11.8,0,11
			c-2.6-0.7,1.8,3.3,1.1,14.7c-0.7,11.4,1.6,25.4,0.1,41.2c-1.5,15.8-2.3,32.4-4.1,36.1s-8.7-6.3-12.4-1.8s-0.8,5.3-7.8,2.7
			c-7-2.7-9.6,1.5-9.6,1.5s-2.9-27.5-3.3-35.7c-0.4-8.2-3.3-33.2,2.6-42.8c5.9-9.6,6.6-10.7,7-12.7c0.4-2-4.4-0.9-3.3-9.4
			c1.1-8.5,3.7-14.4,5.5-16.2C770.4,590.2,774.1,590.5,774.1,590.5z"/>
		<path class="st5" d="M777.4,704.6c-5.7-1.4-23.8,7.9-24.7,9.4s-1.8-6.4-5.3-4.8c-3.5,1.6-1.8,10.4,0,12.7s-2.6,9.4-5,14
			c-2.3,4.7-14.6,10.8-14.6,14s5.6,17,7.3,19.3s-9.1,58.8-7.3,61.8s99.8,0,99.8,0s-10.7-58.8-10.3-60.9c0.4-2,8-13.5,7.7-16.1
			c-0.3-2.6-8.8-11.4-12.3-14s-6.4-19.9-7.6-21.1c-1.2-1.2,10.2-19.3,8.8-22.5c-1.5-3.2-12,11.4-14,12.3
			C797.8,709.7,777.4,704.6,777.4,704.6z"/>
	</g>
	<line class="st6" x1="429.9" y1="442.3" x2="835.9" y2="442.3"/>
	<line class="st6" x1="429.9" y1="560.2" x2="835.9" y2="560.2"/>
	<g>
		<g>
			<path class="st7" d="M581,297.5c0,0.1,0.4,14.7,1.1,35.2c1.2,41.5,3.2,107.2,3.8,126.3c4.7,156.6,11.3,370.7,11.3,370.7h-28.5
				L581,297.5z"/>
			<path class="st8" d="M611.3,433.2c0,0-12.6,25.9-25.2,37.2"/>
			<path class="st8" d="M575.3,541.3c0,0-15.2,8.6-26.6,22.3"/>
			<path class="st9" d="M577.8,433.2c0,0-19.6-46.5-46.2-47.4"/>
			<path class="st8" d="M605,295c0,0-12.8,29-22.2,31.5"/>
			<path class="st10" d="M584.3,297.5c0,0,14.5-0.2,18,3.2c3.5,3.4,16-3.2,24.3-5.7s13.3,5.4,18.6,3.3s10.4-2.2,18.2-3.8
				c7.9-1.6,29.8-4.5,14.5-8.6c-15.3-4.1-34.8-2.1-36.9-9.1c-2.1-7,27.3-0.4,29.4-2.9c2.1-2.5-1.7-12-27.8-17
				c-26.1-5-14.6-12.1-45.6-14.7c-31-2.7-21.9-2.2-30.2,3.6s-19.1,5-25.7,10.4s-16.6,12.8-11.6,18.2s20.7,1.2,20.7,1.2l-13.3,8.7
				c0,0-14.1-1.7-19.9,2.9c-5.8,4.6-7.5,9.6,5.8,10.4c13.3,0.8,24.9,7.5,37.3,4.1S584.3,297.5,584.3,297.5z"/>
			<path class="st10" d="M582.9,369.6c6.4,3.2,24.7-9.1,31.7-11.6c7-2.5,15.7-11.2,21.1-10.4c5.4,0.8,23.2-7.6,29.8-0.1
				c6.6,7.5,9.9,5.4,13.7,7.5s14.9-4.1,22.4,3.7c7.5,7.9,11.2,11.6-4.1,10.8c-15.3-0.8-24.9-8.9-35.6,0.1c-10.8,9,12.4,16-1.7,16
				s-41-6.6-52.2,0s-29.4-8.3-37.3-3.3c-7.9,5-22.8,23.6-31.1,14.5c-8.3-9.1-11.2-22.8-18.6-14.5c-7.5,8.3-6.2,13.2-18.2,17
				c-12,3.7-20.7-2.1-26.1,5s-22.8,7.5-27.3,1.7s-7.9-17.4-14.1-17s-0.4-19.1,9.5-18.6c9.9,0.4,0-6.6,12.8-11.6
				c12.8-5-2.1-1.2-4.6-9.1c-2.5-7.9,19.9-7,25.7-13.7s11.2-0.8,16.2-6.6c5-5.8,25.3-14.1,34.4-7.5c9.1,6.6,14.2-8.3,25.5,0
				c11.4,8.3,12,7.5,23.1,9.9s18.7,11.9,4.7,17.8c-14,5.8-13.3,10.2-6.5,15L582.9,369.6z"/>
			<path class="st10" d="M570.3,429.7c0,0,8.2-12,15.9-13.7c7.7-1.7,21.5-16.2,25.2-16.2s13.6-5.8,21.9-5
				c8.3,0.8,32.7,10.8,32.7,10.8l27.6-4.7c1.1-0.2,2.3,0.1,3.2,0.7c2.7,1.9,9.3,6.1,17.7,8.4c11.2,3,31.5,2.2,27.8,9.7
				c-3.7,7.5-38.1,1.2-47.2,5.4c-9.1,4.1-24.9-6.2-41,0s-31.8,18.6-42.6,15.3c-10.8-3.3-12.5-7.5-26.2-4.6S570.3,429.7,570.3,429.7z
				"/>
			<path class="st10" d="M570.3,472.8c-14.2-17.4-13.8-7.4-25.4-13.7c-11.6-6.2-19.9-25.7-46-12s-22,18.4-38.1,23.3
				c-16.2,4.9-18.6,9.5-9.5,13.6c9.1,4.1,17-4.1,23.2-2.5c6.2,1.7,13.3,4.8,21.1,3.7c7.9-1.2,24.9-8.6,27.3-7.4
				c2.5,1.2,2.5,1.2,2.5,1.2s30.7,0.4,21.5,6.4c-9.1,6-13.7,11-4.1,13.1c9.5,2.1,12.2,2.9,19.1,0c7-2.9,16.9,9.6,20.8,1.9
				C586.8,492.6,570.3,472.8,570.3,472.8z"/>
			<path class="st10" d="M586.8,492.6c2.9-2,15.7-17.4,15.7-17.4s4.6-10.4,17.4-10.8c12.8-0.4,20.7-11.6,30.2-7
				c9.5,4.6,12,9.5,16.2,10.4c4.1,0.8,10.4,0.4,10.4,0.4l17.3,1.8c1.8,0.2,3.2,1.5,3.6,3.2l1.3,6.3c0.7,3.6-1.9,7-5.5,7.2l-14.6,0.8
				L657,484c-0.4-0.1-0.7,0-1,0.2l-14.4,8.2c-2,1.1-4.4,1.1-6.3-0.1c-4.6-2.9-14.1-7.3-24-2.5c-13.7,6.6-24,18.4-24.1,14.5
				C587.1,500.5,586.8,492.6,586.8,492.6z"/>
			<path class="st10" d="M546.5,555c0,0-16.4,20.1-20.5,18.8c-4.1-1.2-29-12.7-36.5,0.1c-7.5,12.8-8.3,30.2,0,25.6
				c8.3-4.6,16.3-17.4,25.5-14.9c9.3,2.5,28.8,3.9,31.5-7C549.1,566.8,572.7,538.9,546.5,555z"/>
		</g>
		<path class="st8" d="M589.3,363"/>
	</g>
</g>
<g id="textos">
	<g>
		<rect x="363.2" y="36.4" class="st11" width="471" height="128"/>
		<text transform="matrix(1 0 0 1 363.1702 67.8744)"><tspan x="0" y="0" class="st12 st13 st14">La mayor parte del día se </tspan><tspan x="0" y="44.4" class="st12 st13 st14">trasladan y acicalan en la copa </tspan><tspan x="0" y="88.8" class="st12 st13 st14">de los árboles (especie arbórea). </tspan></text>
	</g>
	<g>
		<rect x="649.7" y="868.7" class="st11" width="211.9" height="134.9"/>
		<text transform="matrix(1 0 0 1 685.6009 900.1)"><tspan x="0" y="0" class="st12 st13 st14">Virgen Cerro </tspan><tspan x="-10.1" y="44.4" class="st12 st13 st14">San Cristóbal</tspan></text>
	</g>
	<g>
		<rect x="473.1" y="868.7" class="st11" width="191" height="87.9"/>
		<text transform="matrix(1 0 0 1 519.8934 900.1)"><tspan x="0" y="0" class="st12 st15 st14">Shorea </tspan><tspan x="-8.7" y="44.4" class="st12 st15 st14">javanica</tspan></text>
	</g>
</g>
<g id="alturas">
	<g>
		<g>
			<g>
				<g>
					<rect x="358.5" y="800.4" class="st11" width="70.4" height="52.5"/>
					<text transform="matrix(1 0 0 1 358.4573 831.7973)" class="st12 st13 st14">0 m</text>
					<rect x="358.5" y="533.5" class="st11" width="92.1" height="52.5"/>
					<text transform="matrix(1 0 0 1 358.4573 564.9233)" class="st12 st13 st14">22 m</text>
					<rect x="358.5" y="409.9" class="st11" width="93.1" height="52.5"/>
					<text transform="matrix(1 0 0 1 358.4573 441.3744)" class="st12 st13 st14">30 m</text>
				</g>
			</g>
		</g>
	</g>
</g>
</svg>
