<svg id="Capa_1" data-name="Capa 1" xmlns="http://www.w3.org/2000/svg" viewBox="0 0 792 197.22"><defs><style>.cls-1,.cls-10,.cls-30,.cls-31{fill:none;}.cls-1,.cls-29,.cls-31{stroke:#95c11f;}.cls-1,.cls-10,.cls-28,.cls-29,.cls-30,.cls-31{stroke-miterlimit:10;}.cls-1,.cls-10{stroke-width:7.8px;}.cls-2,.cls-28{fill:#95c11f;}.cls-3{font-size:7.5px;font-family:BarlowSemiCondensed-Light, Barlow Semi Condensed;font-weight:300;}.cls-3,.cls-8{fill:#1e1e1c;}.cls-4{letter-spacing:-0.01em;}.cls-5{letter-spacing:0em;}.cls-6{letter-spacing:-0.01em;}.cls-7{letter-spacing:0em;}.cls-8{font-size:8.5px;font-family:BarlowSemiCondensed-SemiBold, Barlow Semi Condensed;font-weight:600;}.cls-9{letter-spacing:-0.02em;}.cls-10,.cls-28,.cls-30{stroke:#063;}.cls-11,.cls-29{fill:#063;}.cls-12{letter-spacing:0em;}.cls-13{letter-spacing:-0.01em;}.cls-14{letter-spacing:-0.01em;}.cls-15{letter-spacing:0em;}.cls-16{letter-spacing:-0.01em;}.cls-17{letter-spacing:0em;}.cls-18{letter-spacing:0em;}.cls-19{letter-spacing:-0.01em;}.cls-20,.cls-21,.cls-22{font-family:BarlowSemiCondensed-Medium, Barlow Semi Condensed;font-weight:500;}.cls-21{letter-spacing:-0.01em;}.cls-22{letter-spacing:-0.01em;}.cls-23{letter-spacing:-0.01em;}.cls-24{letter-spacing:0.02em;}.cls-25{letter-spacing:0em;}.cls-26{letter-spacing:0em;}.cls-27{letter-spacing:-0.01em;}.cls-28,.cls-29{stroke-width:3.85px;}.cls-30,.cls-31{stroke-width:0.5px;stroke-dasharray:0.92 0.74;}</style></defs><line class="cls-1" x1="306.52" y1="91.94" x2="761.54" y2="91.94"/><polygon class="cls-2" points="758.92 100.89 774.41 91.94 758.92 83 758.92 100.89"/><text class="cls-3" transform="translate(10.02 146.06) scale(1.16 1)"><tspan class="cls-4">T</tspan><tspan x="3.58" y="0">ala ilegal</tspan><tspan x="-2.12" y="9">de bosques</tspan></text><text class="cls-3" transform="translate(190.08 146.06) scale(1.16 1)">In<tspan class="cls-5" x="5.34" y="0">c</tspan><tspan x="8.74" y="0">endios</tspan></text><text class="cls-3" transform="translate(267.95 146.06) scale(1.16 1)"><tspan class="cls-6">C</tspan><tspan x="3.88" y="0">onstru</tspan><tspan class="cls-7" x="22.48" y="0">c</tspan><tspan x="25.88" y="0">ción de </tspan><tspan x="8.94" y="9">caminos y </tspan><tspan x="7.73" y="18">agricultu</tspan><tspan class="cls-7" x="33.08" y="18">r</tspan><tspan x="35.49" y="18">a</tspan></text><text class="cls-3" transform="translate(329.16 146.06) scale(1.16 1)">Plantaciones<tspan x="7.86" y="9">de c</tspan><tspan class="cls-7" x="19.83" y="9">a</tspan><tspan x="23.23" y="9">fé</tspan></text><text class="cls-8" transform="translate(17.13 134.92) scale(1.16 1)">1980</text><text class="cls-8" transform="translate(286.31 134.99) scale(1.16 1)">1995</text><text class="cls-8" transform="translate(341.24 134.92) scale(1.16 1)">1998</text><text class="cls-8" transform="translate(517.03 79.69) scale(1.16 1)">2008</text><text class="cls-8" transform="translate(734.4 139.69) scale(1.16 1)">A la <tspan class="cls-9" x="14.14" y="0">f</tspan><tspan x="16.82" y="0">echa</tspan></text><text class="cls-8" transform="translate(197.56 134.92) scale(1.16 1)">1990</text><line class="cls-10" x1="19.41" y1="116.59" x2="761.54" y2="116.59"/><polygon class="cls-11" points="758.92 125.54 774.41 116.59 758.92 107.65 758.92 125.54"/><text class="cls-3" transform="translate(603.93 50.71) scale(1.16 1)">24 de o<tspan class="cls-7" x="20.51" y="0">c</tspan><tspan x="23.92" y="0">tub</tspan><tspan class="cls-12" x="33.39" y="0">r</tspan><tspan class="cls-13" x="35.78" y="0">e</tspan><tspan x="39.16" y="0">, día </tspan><tspan x="-14.56" y="9">in</tspan><tspan class="cls-14" x="-9.34" y="9">t</tspan><tspan x="-7.07" y="9">ernacional del Gibón </tspan><tspan x="18.96" y="18">por la UICN</tspan></text><text class="cls-3" transform="translate(148.51 51.29) scale(1.16 1)">Se p<tspan class="cls-15" x="12.38" y="0">r</tspan><tspan x="14.77" y="0">ohíbe el </tspan><tspan class="cls-7" x="38.45" y="0">c</tspan><tspan x="41.86" y="0">ome</tspan><tspan class="cls-12" x="54.4" y="0">r</tspan><tspan x="56.79" y="0">cio in</tspan><tspan class="cls-16" x="72.1" y="0">t</tspan><tspan class="cls-17" x="74.37" y="0">ernacional de Siaman</tspan><tspan class="cls-18" x="135.72" y="0">g</tspan><tspan x="139.2" y="0">s por </tspan><tspan x="13.52" y="9">la </tspan><tspan class="cls-7" x="19.93" y="9">c</tspan><tspan x="23.34" y="9">o</tspan><tspan class="cls-18" x="26.89" y="9">n</tspan><tspan class="cls-19" x="30.44" y="9">v</tspan><tspan x="33.48" y="9">ención sob</tspan><tspan class="cls-15" x="64.51" y="9">r</tspan><tspan x="66.91" y="9">e el </tspan><tspan class="cls-6" x="78.39" y="9">C</tspan><tspan x="82.27" y="9">ome</tspan><tspan class="cls-12" x="94.81" y="9">r</tspan><tspan x="97.2" y="9">cio In</tspan><tspan class="cls-14" x="112.63" y="9">t</tspan><tspan x="114.9" y="9">ernacional de </tspan><tspan class="cls-18" x="67.95" y="18">E</tspan><tspan x="71.81" y="18">species Amenazadas (CITES)</tspan></text><text class="cls-3" transform="translate(382.96 51.59) scale(1.16 1)">Se decla<tspan class="cls-7" x="24.14" y="0">r</tspan><tspan x="26.55" y="0">a </tspan><tspan class="cls-20" x="31.45" y="0">en pelig</tspan><tspan class="cls-21" x="54.45" y="0">r</tspan><tspan class="cls-20" x="56.93" y="0">o de </tspan><tspan class="cls-22" x="70.86" y="0">e</tspan><tspan class="cls-20" x="74.38" y="0">xtinción </tspan><tspan x="99.63" y="0">por la Unión </tspan><tspan x="47.16" y="9">In</tspan><tspan class="cls-14" x="52.5" y="9">t</tspan><tspan x="54.76" y="9">ernacional de </tspan><tspan class="cls-23" x="94.81" y="9">C</tspan><tspan x="98.69" y="9">onse</tspan><tspan class="cls-24" x="112.47" y="9">r</tspan><tspan class="cls-25" x="115.06" y="9">v</tspan><tspan x="118.13" y="9">ación</tspan><tspan x="68.81" y="18">de la N</tspan><tspan class="cls-7" x="88.16" y="18">a</tspan><tspan x="91.56" y="18">tu</tspan><tspan class="cls-7" x="97.45" y="18">r</tspan><tspan x="99.86" y="18">aleza (UICN)</tspan></text><text class="cls-3" transform="translate(678.59 41.44) scale(1.16 1)">La Unión Eu<tspan class="cls-12" x="34.03" y="0">r</tspan><tspan x="36.43" y="0">opea endu</tspan><tspan class="cls-26" x="66.22" y="0">r</tspan><tspan x="68.61" y="0">e</tspan><tspan class="cls-7" x="72.1" y="0">c</tspan><tspan x="75.5" y="0">e </tspan><tspan x="0" y="9">las </tspan><tspan class="cls-12" x="9.57" y="9">r</tspan><tspan x="11.96" y="9">egulaciones a las </tspan><tspan x="0" y="18">industrias del a</tspan><tspan class="cls-7" x="43.44" y="18">c</tspan><tspan x="46.84" y="18">ei</tspan><tspan class="cls-14" x="51.96" y="18">t</tspan><tspan x="54.23" y="18">e de </tspan><tspan x="0" y="27">palma en Indonesia y Malasia</tspan></text><text class="cls-8" transform="translate(642.97 79.69) scale(1.16 1)"><tspan xml:space="preserve"> 2</tspan><tspan class="cls-27" x="5.85" y="0">0</tspan><tspan x="10.01" y="0">15</tspan></text><text class="cls-8" transform="translate(680.85 79.69) scale(1.16 1)"><tspan xml:space="preserve"> 2</tspan><tspan class="cls-27" x="5.85" y="0">0</tspan><tspan x="10.01" y="0">17</tspan></text><text class="cls-8" transform="translate(304.74 79.69) scale(1.16 1)">1996</text><ellipse class="cls-28" cx="25.64" cy="116.59" rx="6.23" ry="5.35"/><ellipse class="cls-28" cx="205.76" cy="116.59" rx="6.23" ry="5.35"/><ellipse class="cls-28" cx="295.07" cy="116.59" rx="6.23" ry="5.35"/><ellipse class="cls-29" cx="312.75" cy="91.94" rx="6.23" ry="5.35"/><ellipse class="cls-29" cx="526.91" cy="91.94" rx="6.23" ry="5.35"/><ellipse class="cls-29" cx="653.62" cy="91.94" rx="6.23" ry="5.35"/><ellipse class="cls-29" cx="689.5" cy="91.94" rx="6.23" ry="5.35"/><ellipse class="cls-28" cx="349.65" cy="116.59" rx="6.23" ry="5.35"/><ellipse class="cls-28" cx="420.81" cy="116.59" rx="6.23" ry="5.35"/><line class="cls-30" x1="312.94" y1="80.78" x2="312.94" y2="91.48"/><text class="cls-3" transform="translate(397.97 146.06) scale(1.16 1)">Ext<tspan class="cls-7" x="9.29" y="0">r</tspan><tspan x="11.7" y="0">a</tspan><tspan class="cls-7" x="15.1" y="0">c</tspan><tspan x="18.51" y="0">ción de</tspan><tspan x="-2.97" y="9">a</tspan><tspan class="cls-7" x="0.43" y="9">c</tspan><tspan x="3.84" y="9">ei</tspan><tspan class="cls-14" x="8.96" y="9">t</tspan><tspan x="11.22" y="9">e de palma</tspan></text><text class="cls-8" transform="translate(412.63 134.92) scale(1.16 1)">2002</text><line class="cls-31" x1="420.81" y1="116.83" x2="420.81" y2="127.54"/><line class="cls-30" x1="653.62" y1="81.56" x2="653.62" y2="92.13"/><line class="cls-30" x1="526.91" y1="81.56" x2="526.91" y2="92.13"/><line class="cls-30" x1="689.5" y1="81.56" x2="689.5" y2="92.13"/><line class="cls-31" x1="295.07" y1="116.31" x2="295.07" y2="127.01"/><line class="cls-31" x1="349.65" y1="116.31" x2="349.65" y2="127.01"/><line class="cls-31" x1="205.76" y1="116.59" x2="205.76" y2="127.3"/><line class="cls-31" x1="25.64" y1="117.49" x2="25.64" y2="128.19"/></svg>