<?xml version="1.0" encoding="utf-8"?>
<!-- Generator: Adobe Illustrator 25.3.1, SVG Export Plug-In . SVG Version: 6.00 Build 0)  -->
<svg version="1.1" id="mapa-1" xmlns="http://www.w3.org/2000/svg" xmlns:xlink="http://www.w3.org/1999/xlink" x="0px" y="0px"
	 viewBox="0 0 1000 300" style="enable-background:new 0 0 1000 300;" xml:space="preserve">
<style type="text/css">
	.st0{fill:#D2E7F9;}
	.st1{fill:#FFFFFF;}
	.st2{opacity:0.8;}
	.st3{opacity:0.8;fill:#FFFFFF;enable-background:new    ;}
	.st4{fill:#95C11F;}
	.st5{fill:none;}
	.st6{fill:#1D1D1B;}
	.st7{font-family:"Roboto", sans-serif}
	.st8{font-size:12px;}
	.st9{fill:#1E1E1C;}
	.st10{font-size:14.9111px;}
</style>
<rect class="st0" width="1000" height="300"/>
<g>
	<g>
		<g>
			<g>
				<g transform="translate(0,0) scale(1.259722500391938)">
					<g>
						<path class="st1" d="M337.5,35.8l-0.1,3.3l-1.5-0.7l0.3,3.6l-1.2-2.4l-0.2-2.3l-0.8-2.2l-1.8-2.7l-3.9-0.2l0.4,1.9l-1.3,2.5
							l-1.8-0.9l-0.6,0.8l-1.2-0.5l-1.6-0.4l-0.7-3.8l-1.5-3.5l0.7-2.8l-2.6-1.2l0.9-1.7l2.7-1.7l-3.1-2.5l1.5-3.2l3.4,2l2,0.2
							l0.4,3.3l4,0.6l3.9-0.1l2.5,0.8l-2,3.9l-1.9,0.3l-1.3,2.6l2.3,2.4l0.7-2.9h1.2L337.5,35.8z"/>
						<path class="st1" d="M68.1,150.3l-0.3-5.1l-1.1-1.9l2.6,0.3l1.3-2.4l2.3,0.3l0.2,1.7l0.9,1v1.4l-1,0.9l-1.7,2.2l-1.5,1.5
							L68.1,150.3z"/>
						<path class="st1" d="M123.5,77.9l-1.5-1.4l-1.7-2.5l-1.9-1.4l-1.1-1.5l-3.7-1.7l-2.9-0.1l-1-0.9l-2.5,1l-2.6-2l-1.3,3.3
							l-5-0.9L97.8,68l1.8-6.4l0.4-2.9l1.3-1.4l3.1-0.7l2.2-2.5l2.5,5.1l1.2,4l2.3,2.1l5.8,4.1l2.4,2.5l2.3,2.5l1.3,1.5l2.1,1.3
							l-1.3,1.1L123.5,77.9z"/>
						<path class="st1" d="M709.8,199.9l-0.5,2.1l-0.4,0.2l-2.7,1.1l-2.7,0.9l-0.5-1.6l2.1-0.9l1.3-0.2l2.5-1.4L709.8,199.9z
							 M701,206.5l-1.9-0.5l-1.6,1.5l0.4,2l2.3,0.6l2.6-0.6l0.7-2.3l-1.5-1.3L701,206.5z"/>
						<path class="st1" d="M91.9-8.4L92-9.3c-0.6,0-1.3,0.1-1.9,0.1L89-7.8l2.8,8.4L94-7.2l-0.1-1.9L91.9-8.4z"/>
						<path class="st1" d="M103.2-9.9c-3.1,0.2-6.1,0.4-9.2,0.5l-0.1,0.3L94-7.2l-2.1,7.8L92,1.4l4.7,0.8l1.8-1.5l1-1.8l3.2-0.7
							l0.7-1.6l1.4-0.8l-4.2-4.9L103.2-9.9z"/>
						<path class="st1" d="M147.4-1.6l0.9,2.2l-0.4,1.1l1.4,3.6l-3,0.1l-1.1-2.3l-3.8-0.5l3.1-4.7L147.4-1.6z"/>
						<path class="st1" d="M291.2,99.4l-0.6,4.4l-1.8,1.2l-3.7,1l-2-3.4l-0.8-6.1l1.9-6.9l2.9,2.4l2,3L291.2,99.4z"/>
						<path class="st1" d="M648.5,222.5l3.5,2.8l2.2,2.1l-1.6,1.1l-2.3-1.2l-3-2.1l-2.7-2.4l-2.8-3.2l-0.6-1.5l1.8,0.1l2.4,1.5
							l1.9,1.5L648.5,222.5z"/>
						<path class="st1" d="M9.1,40.3l-1.6-1.2l-1-7.1l-3,1.7l-2.4-2.5l-6.7-2l-3.2,1.9c0.2,11.3,0.7,22.6,0.7,33.8
							c0,3.2,0,6.3,0,9.5l0.5,0.1l3.3,1.3l3.3-2.4l1,0.2l2.9,4.7l0.8-0.1l0.1-1.4L5,76.5l0.4-2l-2.7-0.1v-2.8L0.9,70l1.8-5.8L8.2,60
							l0.2-5.8l1.6-9.1l0.9-1.9l-1.8-1.5L9.1,40.3z"/>
						<path class="st1" d="M159.4,23.3l-0.3-3.4l1.1-2.5l1.2-0.5l1.3,1.5l0.1,2.7l-0.9,2.7l-1.2,0.3L159.4,23.3z"/>
						<path class="st1" d="M474.9,169l0.5-1l3.7-1l3-0.1l1.3-0.5l1.6,0.5l-1.6,1.2L479,170l-3.6,1.2l-0.1-1.3L474.9,169z"/>
						<path class="st1" d="M461.3,24.9l-2.6,7.4l-1.8,3.8l-2.2-3.9l-0.5-3.4l2.5-4.5l3.4-3.5l1.9,1.4L461.3,24.9z"/>
						<path class="st1" d="M162.7,25.6l0.8-0.2l0.2,1.3L167,26l3.5,0.1l2.6,0.1l2.9-3.1l3.2-3l2.7-2.9l0.8,1.6l0.6,3.7h-2.2l-0.3,3
							l0.8,0.6l-1.9,0.9v1.9l-1.2,1.9l-0.1,1.8l-0.9,1l-12.8-2.3l-1.6-4.7L162.7,25.6z"/>
						<path class="st1" d="M78.9,135.6l-4.7-0.1l-1.5,0.5l-2.5,1.3l-1-0.4v-3.2l1-1.6l0.2-3.4l0.9-2l1.6-2.2l1.6-1.1l1.4-1.5
							l-1.7-0.6l0.3-4.9l1.8-1.2l2.7,0.9l3.4-1h3l2.6-1.9l2,2.9l0.5,2.1l1.9,4.9l-1.5,3.1l-2.1,2.8l-1.2,1.7v4.5L78.9,135.6z"/>
						<path class="st1" d="M193.7,40l-1.6,3.1l-1.9-0.2l-0.9,1.1l-0.7,2.3l0.5,3l-0.4,0.5h-2l-2.7,1.7l-0.4,2.2l-1,0.9H180l-1.7,1.1
							v1.8l-2.1,1.2l-2.3-0.4l-2.8,1.5l-2,0.3l-1.4-3.1l-3.3-7.3l12.8-4.5l2.8-9.1l-1.9-3.2l0.1-1.8l1.2-1.9v-1.9l1.9-0.9l-0.8-0.6
							l0.3-3h2.2l1.9,3.2l2.4,1.7l3.1,0.6l2.5,0.8l1.9,2.6l1.1,1.5l1.5,0.6v1l-1.5,2.7l-0.7,1.3L193.7,40z M183.2,17.9l-0.6,0.9
							l-0.8-1.6l1.2-1.6l0.5,0.4L183.2,17.9z"/>
						<g>
							<g class="st2">
								<path class="st1" d="M373.2,105l0.3,2.2l2.8-0.5l1.4-1.7l1,0.4l2.5,2.6l1.8,2.8l0.2,2.9l-0.5,1.9l0.4,1.5l0.3,2.5l1.5,1.2
									l1.7,3.7l-0.1,1.4l-3,0.3l-4-3.1l-5-3.4l-0.5-2.2l-2.5-2.8l-0.6-3.5l-1.5-2.3l0.5-3.1L369,104l0.7-0.8L373.2,105z
									 M447.9,112.4l-3.1,1.4l-3.7-0.7h-4.9l-1.5,4.8l-1.6,1.5l-2.2,5.9l-3.5,0.9l-4-1.2l-2,0.4l-2.5,2.1l-2.7-0.3l-2.7,0.9
									l-2.9-2.4l-0.7-2.8l3.1,1.4l3.3-0.8l0.9-3.6l1.8-0.8l5.1-0.9l3.1-3.3l2.1-2.7l1.9,2.2l0.9-1.4l2,0.1l0.2-2.7l0.2-2.1l3.3-3
									l2.1-3.3h1.7l2.2,2.2l0.2,1.8l2.8,1.2l3.5,1.3l-0.3,1.7l-2.9,0.2L447.9,112.4z"/>
							</g>
						</g>
						<path class="st1" d="M402.9,38l-5.7,3.9l-3.5,4.3l-0.9,3.1l3.3,4.7l4,5.8l3.9,2.7l2.6,3.5l1.9,8.1l-0.6,7.6l-3.5,2.8l-4.9,2.8
							l-3.5,3.6l-5.3,4l-1.5-2.7l1.2-2.9l-3.2-2.4l3.7-1.7l4.5-0.3l-1.9-2.6l7.1-3.3l0.5-5.2l-1-2.9l0.8-4.4l-1.1-3.1l-3.2-3.1
							l-2.7-3.9l-3.5-5.3l-5.1-2.7l1.2-1.6l2.7-1.2l-1.6-3.9h-5.2l-1.9-4.1L378,34l2.3-1.1h3.4l4.1-0.5l3.6-2.4l2.1,1.7l3.9,0.8
							l-0.7,2.6l2,1.9L402.9,38z"/>
						<path class="st1" d="M117.7,134.9l2.5,3.5l-3,1.7l-1.1,1.8l-1.6,0.3l-0.6,3l-1.4,1.7l-0.8,2.8l-1.7,1.4l-6.1-4.2l-0.3-2.5
							l-15.4-8.6l-0.7-0.5v-4.5l1.2-1.7l2.1-2.8l1.5-3.1l-1.9-4.9l-0.5-2.1l-2-2.9l2.6-2.5l2.9-2.8l2.2,0.7v2.4l1.5,1.4h3l5.4,3.6
							h1.3l1-0.1l0.9,0.5l2.8,0.3l1.3-1.8l3.9-1.8l1.7,1.4h2.9l-3.7,4.8L117.7,134.9z"/>
						<path class="st1" d="M-3.1,213.3l0.9,2.8l2.2,5.4l2.2,3.8l1.7,1.9l0.5,2.5l0.1,5.5l1.4,7.2l0.4,1.1h0.1
							c7.2,0.2,14.3,0.6,21.5,1v-5v-13.4l4.2-0.2l0.1-16l3.2-0.1l6.6-1.6l1.6,1.8l2.7-1.7h1.3l2.4-1v-0.4l-1.7-1l-2.8-0.3l-3.5,1
							l-7.8,1.8l-10.3-0.6l-2.9-2.1l-17.2,0.2l-0.6,0.3l-2.5-2l-2.8-0.1l-2.5,0.8l-2,0.8l0.3,3.4L-3.1,213.3z"/>
						<path class="st1" d="M29.1,240.1l2.5,4.4v0.1c1.6,0.1,3.2,0.2,4.8,0.3c1-0.1,2.1-0.1,3.1-0.1l0.9-2l2.1-1.1l1.8,0.6l2,1.3
							l3.5,0.2l2.7-1.1l0.4-1.5l0.7-2.2l2.3-0.4l1.3-1.7l1.4-3.1l3.8-3.4l6-3.4l-2.7-2.1l-3.3-0.7l-1.3-2.9v-1.6l-1.8-0.5l-4.8-4.9
							l-1.3-2.6l-0.9-0.8l-1.6-3.6l-0.8-0.3l-2.4,1h-1.3l-2.7,1.7l-1.6-1.8l-6.6,1.6l-3.2,0.1l-0.1,16l-4.2,0.2v13.4L29.1,240.1z"/>
						<path class="st1" d="M263-13.3c-8.3,0.1-16.7,0.1-25,0.2l0.2,2l-1.7,1.4l-1.6-0.5l-3.3,0.6l-0.5,1.4h-3.2l-2.4,2.8l-0.2,4.2
							l-5.5,2l-3-0.4l-0.9,1.1l-2.5-0.6l-4.3,0.7L202-0.9l2.1,2.6l1.7,2.9l4.1,2.1l0.1,4.2l2,0.8l0.4,2.2l-6.1,2.4l-1.6,5.5l6-0.7
							l6.9-0.1l7.8-0.9l3.3,3.6L230,27l3.1,1.2l2.8-3.1h9.4l-0.8-4l-2.4-2.4l-0.5-3.6L239,13l4.7-5l4.9,0.4l4.4-5l2.7-4.9l4.1-4.9
							l-0.1-3.5l3.6-2.9L263-13.3z"/>
						<path class="st1" d="M154,184.4l1.1,1.8l1.1,2.9l0.7,5.2l1.1,2l-0.4,2.1l-0.8,1.3l-1.4-2.6l-0.8,1.3l0.8,3.3l-0.4,1.9l-1.2,1
							l-0.3,3.8l-1.7,5.2l-2.1,6.2l-2.6,8.6l-1.6,6.4l-1.9,5.4l-3.5,1.1l-3.7,2l-2.4-1.2l-3.4-1.7l-1.2-2.5l-0.3-4.1l-1.5-3.7
							l-0.4-3.3l0.8-3.3l2-0.8v-1.5l2-3.4l0.4-2.9l-1-2.1l-0.8-2.8l-0.3-4.1l1.5-2.5l0.6-2.8l2.1-0.2l2.4-0.9l1.6-0.8l1.9-0.1
							l2.4-2.5l3.5-2.7l1.3-2.2l-0.6-1.9l1.8,0.5l2.3-3l0.1-2.6l1.4-1.9L154,184.4z"/>
						<path class="st1" d="M94.4,30.9l-0.1-3l0.8-0.8L91.3,22l-1.4-2.6l-1.6-2.6l-3.2-7.4l-2.6-4.8l-1.8-5.1L81.2-1l3,6.9L86.1,8
							l1.4,1.5l1-0.8l1.2-2.5l0.9-3.6l1.2-2L89-7.8l-2,1.3l-3.3-0.3L80.3-8l-1,1.6l-1-2.1C75.5-8.3,72.8-8.2,70-8l-0.4,0.3L66.3-6
							l-2-0.8l-2-0.7c-4.5,0.2-9,0.4-13.5,0.6L49.5-5l-1.1,3l1.2,4v34h50.5l-0.7-1L94.4,30.9z"/>
						<path class="st1" d="M147.5-6.6h-1.4l0.7-3.6l-0.9-1.5c-10,0.3-19.9,0.6-29.9,1.1l5.4,3l12,9.8l7.9,0.4l3.1-4.7l2.9,0.4
							l2.5,0.2L147.5-4V-6.6z"/>
						<path class="st1" d="M177.3,33.7l-12.8-2.3l-1.6-4.7l-0.2-1.1l-0.8-1.8l-1.2,0.3l-1.3-0.9l-0.6-1.1l-0.6-1.5l-1.2-1.3
							l-0.5-1.6l0.4-1.6l-0.3-2l-2.9-2l-0.7-1.7l-2.1-1.1l-1.7-4.1l-3,0.1L145.1,3l-3.8-0.5l-7.9-0.4l-12-9.8l-5.4-3
							c-1.8,0.1-3.5,0.1-5.3,0.2c-2.5,0.1-5.1,0.3-7.6,0.4l-2.5,0.7l4.2,4.9l-1.4,0.8l-0.7,1.6l-3.2,0.7l-1,1.8l-1.8,1.5L92,1.4
							l-0.5,1.9L91.3,5l-0.7,2.6h2.1l2.2,3.3l2.6,3.8l1.7,3.5l1.2,1l1.2,2.4l-0.2,1.1l1.4,2.7l2.3,1l2,1.8l2.4,5.1l-0.2,2.7l0.5,3.2
							l2.8,4.3l1.9,0.7l2.9,3.1l1.2,3.6l2.3,3.7l2.2,1.6l0.3,1.8l1.3,1.3l0.6,1.9l1.9-1.4l-0.4-1.9l1.1-2.2l1.7,1.2l1.2-0.4l4.9-0.1
							l0.8,0.4l4.1,0.4l1.6-0.2l1.1,1.5l2-0.7l3-4.7l4-2l12.3-1.7l12.8-4.5l2.8-9.1l-1.9-3.2L177.3,33.7z"/>
						<path class="st1" d="M632.9,175.8l1.2,1.5h-3l-1.6-2.6l2.5,1L632.9,175.8z M627.5,173.2l-1.7,0.1l-2.6-0.4l-0.9-0.7l0.3-1.7
							l2.8,0.7l1.4,0.9L627.5,173.2z M631,172.1l-0.6,0.8l-3.2-3.7l-0.9-2.6h1.4l1.5,3.4L631,172.1z M623.3,166.7l0.2,0.9l-3.3-1.8
							l-2.3-1.5l-1.6-1.4l0.6-0.4l2,1l3.5,2L623.3,166.7z M613.4,162.4l-0.8,0.2l-1.9-1l-1.7-1.7l0.2-0.7l2.5,1.8L613.4,162.4z"/>
						<path class="st1" d="M87.8,91.1L87.2,91l0.1-2.1l-0.5-1.5l-2.2-1.7L84,82.6l0.5-3.2l-2-0.3l-0.3,1l-2.6,0.2l1,1.3l0.4,2.6
							l-2.3,2.4l-2.1,3.1l-2.2,0.4l-3.6-2.5l-1.6,0.9l-0.4,1.3l-2.2,0.8l-0.1,0.9h-4.2l-0.6-0.9l-3.1-0.1l-1.5,0.7l-1.2-0.4
							l-2.2-2.5L53,87.1l-3.1,0.6l-1.2,2l-1.1,3.8l-1.5,0.8l-1.3,0.5l-0.3-0.2L43,93.4L42.8,92l0.7-1.8v-1.7L41,85.8L40.5,84l0.1-1
							L39,81.7v-2.5l-0.9-1.7l-1.5,0.3l0.4-1.6l1.1-1.8l-0.5-1.8l1.4-1.3l-0.9-1l1.1-2.7l1.9-3.2l3.7,0.3l-0.2-17.6l0.1-1.9h4.9v-9
							h17.1h16.5h16.9l1.4,4.5l-0.9,0.8l0.6,4.6l1.6,5.3l1.6,1.1l2.3,1.6l-2.2,2.5l-3.1,0.7l-1.3,1.4l-0.4,2.9L97.8,68l0.5,1.7
							l-0.7,3.7l-1.7,4.3l-2.6,2.1l-1.8,3.3L91,84.9l-2,1.2l-1.3,4.5L87.8,91.1z"/>
						<path class="st1" d="M82.7,170.5l2,1.9l1.1,3.6l-0.7,1.2l-0.9,3.5l0.8,3.6l-1.3,1.5l-1.3,4l2.2,1.1l-12.9,3.6l0.4,3.1
							l-3.2,0.6l-2.4,1.8l-0.5,1.5l-1.5,0.3l-3.7,3.6l-2.4,2.9l-1.4,0.1l-1.4-0.5l-4.8-0.5l-0.8-0.3v-0.4l-1.7-1l-2.8-0.3l-3.5,1
							l-2.8-2.8l-2.9-3.6l0.2-13.9l8.9,0.1l-0.4-1.5l0.6-1.6l-0.7-2l0.5-2.1l-0.5-1.3l1.5,0.1l0.2,1.3l2-0.1l2.7,0.4l1.4,2l3.4,0.6
							l2.6-1.4l1,2.3l3.3,0.6l1.6,1.8l1.7,2.4h3.3l-0.4-4.7l-1.2,0.8l-3-1.7l-1.1-0.8l0.5-4.3l0.8-5.1l-1-1.9l1.2-2.7l1.1-0.5
							l5.7-0.7l1.7,0.4l1.8,1.1l1.7,0.7l2.7,0.7L82.7,170.5z"/>
						<path class="st1" d="M76,227.8l-2.3-0.5l-1.4,0.5l-2.1-0.8h-1.7l-2.7-2.1l-3.3-0.7l-1.3-2.9v-1.6l-1.8-0.5l-4.8-4.9l-1.3-2.6
							l-0.9-0.8l-1.6-3.6l4.8,0.5l1.4,0.5l1.4-0.1l2.4-2.9l3.7-3.6l1.5-0.3l0.5-1.5l2.4-1.8l3.2-0.6l0.3,1.6l3.5-0.1l2,0.9l0.9,1.1
							l2,0.3L83,203v5.6l-0.8,3.1L82,215l0.7,1.3l-0.5,2.6l-0.6,0.4l-1.1,3.3L76,227.8z"/>
						<path class="st1" d="M10.8,118.6l-1.9-1.4L7.3,115l-0.4-1.5l-2-2.2l0.3-1.3l-0.4-1.8l0.3-3.3l1-0.8l2.1-4.3L9,98.7l-1.3-2.9
							L7,94l-1.9-0.7l-2.5-2.5l0.9-2l1.9,0.4l1.2-0.3H9L6.8,85L7,82.1l-0.3-2.9L5,76.5l-1.2,0.2l-0.1,1.4l1.7,1.7l-0.5,0.8L4.7,82
							L1,85.4l-1.1,2.7l-0.6,2.2l-0.9,1l-0.9,3l-2.3,1.8l-0.7,2.2l-1,1.7l-0.4,1.8l-1.6,0.8c-0.1,6.4-0.1,12.8-0.2,19.2l1.9-0.3
							l2.6,0.6l2.5-0.5l0.5,0.2l5.4,0.2l3.4,1.1l3.4,1l0.3-2.3l-0.4-1.2L10.8,118.6z"/>
						<path class="st1" d="M2.2,131.1l1.8-4.9l-1-0.8l-3.2,0.3l-1.2-2.2l0.3-1.8l-0.5-0.2l-2.5,0.5l-2.6-0.6l-1.9,0.3
							c-0.1,8.6-0.2,17.3-0.2,25.9l2.5-1.8l-1.6-2.8l1.5-1.1l2.9-0.5l0.3-1.9l2.3,2l3.8,0.2l1.3-2l0.5-2.8l-0.5-3.3L2.2,131.1z"/>
						<path class="st1" d="M19.1,116.3l-2.9-0.7l-2.5,2.2l-2.2,3.9l-0.3,2.3l-3.4-1l-3.4-1.1l-5.4-0.2l-0.3,1.8l1.2,2.2l3.2-0.3
							l1.1,0.8l-1.8,4.9l2,2.5l0.5,3.3l-0.5,2.8l-1.3,2l-3.8-0.2l-2.3-2l-0.3,1.9l-2.9,0.5l-1.5,1.1l1.6,2.8l-2.5,1.8
							c0,0.5,0,0.9,0,1.4l2.8,3.6l1.7-1.8l1.3-0.7l1.6,1.5l1.1,0.4l1.5-1.6h2.3l0.3,1.2l1.6,0.8l2.5-2.7l2.5-2.1l1.1-1.4l-0.1-3.5
							l1.8-4.1l1.9-2.2l2.8-2l0.5-1.3l0.1-1.5l0.7-1.5l-0.2-2.4l0.5-3.7l0.8-2.6l1.3-2.3l0.3-2.6L19.1,116.3z"/>
						<path class="st1" d="M12.8,156.2l1,3.2L15,162l1,1.4l1.6,2.2l2.8-0.3l1.4-0.6l2.3,0.6l0.6-1.1l1.1-2.5l2.6-0.2l0.2-0.7h2.2
							l-0.4,1.5h5.2l0.1,2.7l0.9,1.6l-0.6,2.6l0.3,2.6l1.4,1.6l-0.2,5.1l1.1-0.4l1.8,0.1l2.6-0.6l1.9,0.3l0.4,1.3l-0.5,2.1l0.7,2
							l-0.6,1.6l0.4,1.5l-8.9-0.1l-0.2,13.9l2.9,3.6l2.8,2.8l-7.8,1.8l-10.3-0.6l-2.9-2.1l-17.2,0.2l-0.6,0.3l-2.5-2l-2.8-0.1
							l-2.5,0.8l-2,0.8l-0.4-2.8l0.6-3.9l1.5-4l0.2-1.9l1.4-3.9l1-1.8l2.4-2.8l1.4-1.9l0.4-3.2l-0.2-2.4l-1.3-1.5l-1.1-2.6l-1-2.6
							l0.2-0.9l1.3-1.7l-1.3-4.1l-0.9-2.9l-2.1-2.7l0.4-0.8l1.8-0.6l1.2,0.1l1.5-0.5L12.8,156.2z M-3.8,155.4l-1.1,0.4l-1.1-3.2
							l1.7-1.8l1.3-0.7l1.6,1.5l-1.5,0.9l-0.7,1.1L-3.8,155.4z"/>
						<g>
							<g class="st2">
								<path class="st1" d="M456.8,174.8l-1.8,0.1l-5.6-3l4-0.8l2.2,1.3l1.5,1.3L456.8,174.8z M472.6,174.4l-3.6,0.9l-0.5-0.5
									l0.4-1.5l1.8-2.6l4.2-1.7l0.4,0.8l0.1,1.3L472.6,174.4z M444.8,165.6l1.5,1.1l2.6-0.3l1.1,1.8l-4.9,0.9l-2.9,0.6h-2.3
									l1.5-2.5h2.3L444.8,165.6z M466.1,165.6l-0.6,2.4l-6.4,1.2l-5.7-0.5v-1.6l3.4-0.9l2.7,1.3l2.8-0.3L466.1,165.6z M405.3,160
									l8.1,0.4l0.9-1.8l7.9,2l1.5,2.8l6.4,0.8l5.2,2.5l-4.9,1.6l-4.7-1.7l-3.9,0.1l-4.4-0.3l-4-0.8l-4.9-1.6l-3.1-0.4l-1.8,0.5
									l-7.8-1.8l-0.7-1.8l-3.9-0.3l2.9-4.1l5.2,0.3l3.4,1.7l1.8,0.3L405.3,160z M516.4,157.6l-2.2,2.9l-0.4-3.2l0.8-1.5l0.9-1.4
									l1,1.2L516.4,157.6z M484.6,145.9l-1.6,1.4l-2.9-0.8l-0.8-1.8l4.3-0.2L484.6,145.9z M498.3,144.4l1.5,3.2l-3.6-1.7l-3.6-0.4
									l-2.4,0.3l-2.9-0.1l1-2.3l5.3-0.2L498.3,144.4z M513.9,136.2l1.2,6.8l4.4,2.5l3.6-4.5l4.9-2.6h3.8l3.6,1.5l3.2,1.5l4.6,0.8
									l0.1,13.8l0.1,13.9l-3.8-3.5l-4.3-0.9l-1,1.2l-5.4,0.1l1.8-3.5l2.7-1.2l-1.1-4.6l-2-3.6l-8.2-3.6l-3.5-0.4l-6.4-3.9
									l-1.3,2.1l-1.6,0.4l-1-1.6v-1.8l-3.2-2.1l4.6-1.5l3,0.1l-0.4-1.1h-6.2l-1.7-2.5l-3.8-0.8l-1.8-2.1l5.7-1l2.2-1.4l6.8,1.7
									L513.9,136.2z M476,125.3l-3.4,4.2l-3.2,0.8l-4.1-0.8l-7.1,0.2l-3.7,0.6l-0.6,3.2l3.8,3.8l2.3-1.9l7.9-1.4l-0.3,1.9
									l-1.9-0.6l-1.8,2.5l-3.7,1.6l4,5.4l-0.8,1.5l3.8,4.9v2.8l-2.3,1.2l-1.7-1.5l2.1-3.5l-4.2,1.6l-1.1-1.2l0.6-1.6l-3.1-2.5
									l0.3-4.1l-2.8,1.3l0.4,4.9l0.2,6.1l-2.7,0.6l-1.8-1.2l1.2-3.9l-0.7-4.1h-1.8l-1.3-2.9l1.8-2.8l0.6-3.4l2.1-6.4l0.9-1.7
									l3.6-3.1l3.3,1.2l5.4,0.6l4.9-0.2l4.2-3.1L476,125.3z M490.7,126.5l-0.2,3.7l-2.2-0.4l-0.6,2.6l1.8,2.2l-1.2,0.5l-1.7-2.7
									l-1.3-5.4l0.9-3.4l1.4-1.5l0.3,2.3l2.5,0.4L490.7,126.5z M444.7,123.6l4.8,3.9l-5,0.5l-1.4,2.9l0.2,3.8l-4.1,2.9l-0.1,4.2
									l-1.6,6.5l-0.6-1.5l-4.8,1.9l-1.7-2.6l-3-0.2l-2.1-1.4L420,146l-1.6-2l-2.8,0.2l-3.5-0.5l-0.7-5.7l-2.1-1.2l-2-3.6l-0.6-3.7
									l0.5-3.9l2.5-2.8l0.7,2.8l2.9,2.4l2.7-0.9l2.7,0.3l2.5-2.1l2-0.4l4,1.2l3.5-0.9l2.2-5.9l1.6-1.5l1.5-4.8h4.9l3.7,0.7
									l-2.4,3.8l3.1,4L444.7,123.6z M393.4,156.1l-4.7,0.1l-3.6-3.5l-5.5-3.5l-1.8-2.6l-3.2-3.4l-2.1-3.2l-3.2-5.9l-3.7-3.5
									l-1.2-3.6l-1.6-3.3L359,121l-2.2-3.6l-3.2-2.4l-4.4-4.7l-0.4-2.2l2.7,0.2l6.6,0.8l3.8,4.1l3.3,2.9l2.3,1.8l4,4.5l4.3,0.1
									l3.6,2.9l2.5,3.5l3.2,1.9l-1.7,3.4l2.4,1.5l1.5,0.1l0.7,2.9l1.5,2.4l3.1,0.4l2.1,2.7l-1.1,5.3L393.4,156.1z"/>
							</g>
						</g>
						<path class="st1" d="M87.5,135.3l0.7,0.5l15.4,8.6l0.3,2.5l6.1,4.2l-2,5.2l0.3,2.4l2.7,1.6l0.1,1.1L110,164l0.2,1.3l-0.3,2
							l1.5,2.7l1.8,4.2l1.6,0.9l-3.4,2.5l-4.7,1.7l-2.6-0.1l-1.5,1.3l-3,0.1l-1.1,0.5l-5.1-1.2l-3.2,0.3l-1.2-5.9l-1.4-2l-0.9-1.2
							l-4.2-0.8l-2.4-1.3l-2.7-0.7l-1.7-0.7l-1.8-1.1l-2.3-5.4l-2.5-2.4l-0.9-2.5l0.4-2.2l-0.8-3.9l1.8-0.2l1.5-1.5l1.7-2.2l1-0.9
							v-1.4l-0.9-1l-0.2-1.7l1.2-0.5l0.2-2.5l-1.7-2.4l1.5-0.5l4.7,0.1L87.5,135.3z"/>
						<path class="st1" d="M169.2,59.9l-3.1,1.2l-0.8,2l-0.1,1.5l-4.2,1.9l-6.8,2l-3.8,3.1l-1.9,0.2l-1.3-0.3l-2.5,1.8l-2.7,0.8
							l-3.6,0.2l-1.1,0.2l-0.9,1.1l-1.1,0.3l-0.7,1.1l-2.1-0.1l-1.4,0.6l-2.9-0.2l-1.1-2.5l0.1-2.4l-0.7-1.3l-0.8-3.2l-1.2-1.8
							l0.9-0.2l-0.4-2l0.5-0.8l-0.2-1.9l1.9-1.4l-0.4-1.9l1.1-2.2l1.7,1.2l1.2-0.4l4.9-0.1l0.8,0.4l4.1,0.4l1.6-0.2l1.1,1.5l2-0.7
							l3-4.7l4-2l12.3-1.7l3.3,7.3L169.2,59.9z"/>
						<path class="st1" d="M74.5,116.5l-0.3,4.9l1.7,0.6l-1.4,1.5l-1.6,1.1l-1.6,2.2l-0.9,2l-0.2,3.4l-1,1.6v3.2l-1.2,1.2l-0.2,2.5
							l-0.6,0.3l-0.4,2.3l1.1,1.9l0.3,5.1l0.8,3.9l-0.4,2.2l0.9,2.5l2.5,2.4l2.3,5.4l-1.7-0.4l-5.7,0.7l-1.1,0.5l-1.2,2.7l1,1.9
							l-0.8,5.1l-0.5,4.3l1.1,0.8l3,1.7l1.2-0.8l0.4,4.7h-3.3l-1.7-2.4l-1.6-1.8l-3.3-0.6l-1-2.3l-2.6,1.4l-3.4-0.6l-1.4-2l-2.7-0.4
							l-2,0.1l-0.2-1.3l-1.5-0.1l-1.9-0.3l-2.6,0.6l-1.8-0.1l-1.1,0.4l0.2-5.1l-1.4-1.6l-0.3-2.6l0.6-2.6l-0.9-1.6l-0.1-2.7h-5.2
							l0.4-1.5H29l-0.2,0.7l-2.6,0.2l-1.1,2.5l-0.6,1.1l-2.3-0.6l-1.4,0.6l-2.8,0.3l-1.6-2.2l-1-1.4l-1.2-2.6l-1-3.2l-12.6-0.1
							l-1.5,0.5l-1.2-0.1l-1.8,0.6l-0.6-1.3l1.1-0.4l0.1-1.9l0.7-1.1l1.5-0.9l1.1,0.4l1.5-1.6h2.3l0.3,1.2l1.6,0.8l2.5-2.7l2.5-2.1
							l1.1-1.4l-0.1-3.5l1.8-4.1l1.9-2.2l2.8-2l0.5-1.3l0.1-1.5l0.7-1.5l-0.2-2.4l0.5-3.7l0.8-2.6l1.3-2.3l0.3-2.6l0.4-3l1.7-2.2
							l2.3-1.4l3.5,1.4l2.7,1.6l3.1,0.4l3.2,0.8l1.3-2.6l0.6-0.3l1.9,0.4l4.7-2.1l1.7,0.9l1.4-0.1l0.6-1l1.6-0.4l3.2,0.4l2.7,0.1
							l1.4-0.4l2.6,3.5l1.9,0.5l1.1-0.7l2,0.3l2.4-0.9l1,1.8L74.5,116.5z"/>
						<path class="st1" d="M49.5-5l-0.6-1.9c-6.8,0.3-13.6,0.4-20.4,0.4l-1.9,2.1l-2.1,1.3L20-5.5l-3.2-1.1C9-6.8,1.2-7.2-6.7-8
							c-0.6-0.1-1.1-0.2-1.5-0.4c0.8,8.2-0.5,16.9-0.7,24.7C-9,19.4-9,22.4-9,25.5l1.4,0.9l1.9,2.9l6.7,2l2.4,2.5l3-1.7l4.3-2.5
							l17,8.8l17,8.6l0.1-1.9h4.9V2l-1.3-4L49.5-5z"/>
						<path class="st1" d="M210.2,10.9l-0.1-4.2L206,4.6l-1.7-2.9l-2.1-2.6l3.9-4.4l-0.3-3.2l-3.2-0.8l-0.3-3.2l-0.1-0.2
							c-18.7,0.2-37.4,0.5-56.2,1l0.9,1.5l-0.7,3.6h1.4V-4l2.4,2.6l1.6-1.9l2.7,1.6l2.3-0.8l3.1,6.5l2.8,4.6l4.1,1.4l4.3,3.7
							l5.2,1.6l4.3-2.3l3.3-0.8l2,0.8l1.8,5.8l4.8,0.6l4.6,1.1l8,1.4l1.6-5.5l6.1-2.4l-0.4-2.2L210.2,10.9z"/>
						<path class="st1" d="M232.2-13c-10,0.1-20,0.2-30,0.3l0.1,0.2l0.3,3.2l3.2,0.8l0.3,3.2l-3.9,4.4l7.1,2.5l4.3-0.7l2.5,0.6
							l0.9-1.1l3,0.4l5.5-2l0.2-4.2l2.4-2.8h3.2l0.5-1.4l3.3-0.6l1.6,0.5l1.7-1.4l-0.2-2C236.1-13.1,234.1-13.1,232.2-13z"/>
						<path class="st1" d="M657.2,201.9l-1.4,0.6l-1.4-1.9l0.2-1.2L657.2,201.9z M654.1,195.1l0.7,3.5l-1.1-0.6l-0.9,0.2l-0.6-1.2
							l-0.1-3.4L654.1,195.1z"/>
						<path class="st1" d="M333.3,9l1.7,1.5l-0.3,2.9l-3.5,0.1l-3.6-0.3L325,14l-3.9-1.8l-0.1-1l2.8-3.6l2.3-1.2l3,1.1l2.2,0.1
							L333.3,9z"/>
						<path class="st1" d="M53.4,244.5c7-0.1,14.1-0.1,21.1-0.4c0.3,0,0.6,0,0.8,0l0.1-0.2l1.2-0.3l1.1,0.4c0.3,0,0.6,0,1,0
							l-0.3-1.2l0.8-5.2l-1.1-3.3l-2-6.5l-2.3-0.5l-1.4,0.5l-2.1-0.8l-1.7-0.1l-6,3.4l-3.8,3.4l-1.4,3.1l-1.3,1.7l-2.3,0.4l-0.7,2.2
							l-0.4,1.5l-2.7,1.1l-3.5-0.2l-2-1.3l-1.8-0.6l-2.1,1.1l-0.9,2C44.1,244.6,48.8,244.6,53.4,244.5z"/>
						<path class="st1" d="M31.6,244.6L31.6,244.6l-2.5-4.5l-1.1-0.7v5C29.2,244.5,30.4,244.6,31.6,244.6z"/>
						<polygon class="st1" points="412.1,44.6 407.5,45.8 405.4,47.8 405.5,51.7 409,53.1 412.6,50.9 413.6,48.4 415.5,46.4 
							414.5,44.7 						"/>
						<path class="st1" d="M459.8-3.4c-38.2-0.1-76.3-0.5-114.5-1.1c-20.6-0.3-41.2-0.7-61.8-1l4.9,2.8l1.8-1.2l3.4,1.5l4.3,3.2
							l2.4,0.7l1.4,2.3l3.3,1l3.5,2.1l4.8,1.1l5,0.5l2.6-1l0.4,3.8l2.8-3.6l2.3-1.2l3,1.1l2.2,0.1l1.9,1.3l3.4-0.6l3.9-3.6l4.9-3.1
							l3.6,1.2l3-2l2,3l-1.4,2l4.6,0.7l2.5-0.4l1.4,2.8l1.9,1.1l0.1,3.6l-0.2,3.9l-4,3.9l-0.5,5.5l4.5-0.8l1,4.2l2.7,0.9l-1.2,3.8
							l3.2,1.7l1.8,0.8l3.1-1.3l0.1,1.9l0.4,1.1l2.3,0.1l-0.6-5.2l2.2-0.7l2.3-1.1h3.4l4.1-0.5l3.6-2.4l2.1,1.7l3.9,0.8l-0.7,2.6
							l2,1.9l4.3,1.2l2-0.7l5.7,1.5l-1,1.8l1.1,3.3l2.4-0.3l1.5-4.8L419,38l5.9-2.3l2.4-2.3l1.5,1.5l2.6-2l4.8-0.5l5.9-3.9l5.8-4.3
							l4-5.6l3.4-6.2l3.1-5.2l2.4-0.4L462,3l0.7-4l-2.5-1.5L459.8-3.4z"/>
						<path class="st1" d="M72.7,136.1l1.7,2.4l-0.2,2.5l-1.2,0.5l-2.3-0.3l-1.3,2.4l-2.6-0.3l0.4-2.3l0.6-0.3l0.2-2.5l1.2-1.2
							l1,0.4L72.7,136.1z"/>
						<path class="st1" d="M390.9,70.4l1.4-2l0.2-3.7l-3.4-3.8l-0.3-4.4l-3.2-3.6l-3.2-0.3l-0.9,1.5l-2.5,0.1l-1.3-0.8l-4.5,2.6
							l-0.1-4l1-4.7l-2.9-0.2l-0.2-2.7l-1.8-1.4l0.9-1.7l3.6-2.9l0.4,1.1l2.3,0.1l-0.6-5.2l2.2-0.7l2.5,3.6l1.9,4.1h5.2l1.6,3.9
							l-2.7,1.2l-1.2,1.6l5.1,2.7l3.5,5.3l2.7,3.9l3.2,3.1l1.1,3.1l-0.8,4.4l-3.8-1.6l-1.9,3L390.9,70.4z"/>
						<path class="st1" d="M72.4,199.3l3.5-0.1l2,0.9l0.9,1.1l2,0.3L83,203v5.6l-0.8,3.1L82,215l0.7,1.3l-0.5,2.6l-0.6,0.4l-1.1,3.3
							l-4.5,5.2l2,6.5l1.1,3.3l-0.8,5.2l0.3,1.2c1.1,0,2.2,0,3.3,0.1v-0.2l1.9-1.7l5.1-2.5l3.5-1.6l1.8-1.7l0.6-1.9l-1-0.8l0.7-2.1
							l0.1-4.5l-0.8,0.2l-0.1-1.4l-0.8-2.7l-2-3.4l0.4-3.2l1.8-1l3-3.2l1.6-0.8l4.8-4.8l4.8-2.1l3.9-1.7l2.7-2.7l1.7-3l1.3-3.1
							l-0.7-2.1l-0.2-6.8l-0.5-3.8l0.2-4.3l-0.7-1.9l-3.4,2.5l-4.7,1.7l-2.6-0.1l-1.5,1.3l-3,0.1l-1.1,0.5l-5.1-1.2l-3.2,0.3
							l-1.2,3.3l1.2,5.6l1.5-0.1l1.5,1.4l1.8,3.2l0.4,5.6l-1.8,0.9l-1.3,3.1l-2.8-2.7l-0.3-3.1l0.9-2l-0.2-1.8l-1.7-1.1L87,193
							l-2.4-2.1l-12.9,3.6l0.4,3.1L72.4,199.3z"/>
						<path class="st1" d="M318.1,8.5l-0.3,2.1l0.6,3l-0.5,1.9l-3.5,0.1l-5.1-1.1l-3.3-0.4l-2.5-2.4l-5.8-0.6l-5.5-2.7l-4-2.4
							L284,4.1l1.7-4.5l2.7-2.2l1.8-1.2l3.4,1.5l4.3,3.2l2.4,0.7l1.4,2.3l3.3,1l3.5,2.1l4.8,1.1L318.1,8.5z"/>
						<path class="st1" d="M126.6,77.2l1,1.3l-0.1,1.8l-2.4,1l1.8,1.2l-1.6,2.3l-0.9-0.8l-1,0.3l-2.4-0.1l-0.1-1.3l-0.3-1.2l1.4-2
							l1.5-1.9l1.8,0.4L126.6,77.2z"/>
						<path class="st1" d="M606.3,160.2l-1.2,0.4l-1.8-1.6l-1.9-2.7l-0.9-3.2l0.6-0.4l0.5,1.3l1.3,1l2.1,2.7l2,1.4L606.3,160.2z
							 M589.8,154.5l-2.2,0.3l-0.7,1.2l-2.3,1l-2.2,1h-2.3l-3.5-1.2l-2.4-1.2l0.4-1.3l3.8,0.6l2.3-0.3l0.6-2l0.6-0.1l0.4,2.3
							l2.4-0.3l1.2-1.5l2.4-1.5l-0.5-2.5l2.5-0.1l0.9,0.7l-0.1,2.4L589.8,154.5z M569.4,162.6l3.8,2.8l2.8,4.5l2.4-0.1l-0.2,1.9
							l3.3,0.7l-1.3,0.8l4.5,1.8l-0.5,1.2l-2.8,0.3l-1-1.1l-3.7-0.5l-4.3-0.6l-3.3-2.7l-2.4-2.4l-2.2-3.7l-5.5-1.9l-3.6,1.2
							l-2.6,1.4l0.5,3.2l-3.3,1.5l-2.4-0.7l-4.4-0.2l-0.1-13.9l-0.1-13.8l7.4,2.9l7.9,2.4l2.9,2.2l2.4,2.1l0.6,2.5l7.1,2.6l1,2.3
							l-3.9,0.5L569.4,162.6z M594.7,150.3l-1.3,1.1l-0.8-2.5l-1-1.6l-1.9-1.4l-2.4-1.8l-3.1-1.2l1.2-1l2.3,1.2l1.4,0.9l1.8,1
							l1.7,1.8l1.6,1.4L594.7,150.3z"/>
						<path class="st1" d="M90.3,180.3l-1.2,3.3l1.2,5.6l1.5-0.1l1.5,1.4l1.8,3.2l0.4,5.6l-1.8,0.9l-1.3,3.1l-2.8-2.7l-0.3-3.1
							l0.9-2l-0.2-1.8l-1.7-1.1L87,193l-2.4-2.1l-2.2-1.1l1.3-4l1.3-1.5l-0.8-3.6l0.9-3.5l0.7-1.2l-1.1-3.6l-2-1.9l4.2,0.8l0.9,1.2
							l1.4,2L90.3,180.3z"/>
						<path class="st1" d="M429.1,112.2l1.7-1.6l3.6-2.3l-0.2,2.1l-0.2,2.7l-2-0.1l-0.9,1.4L429.1,112.2z"/>
						<path class="st1" d="M2.8,78.2L0,73.5l-1-0.2l-3.3,2.4l-3.3-1.3l-0.5-0.1c0,9.4-0.1,18.8-0.2,28.1l1.6-0.8l0.4-1.8l1-1.7
							l0.7-2.2l2.3-1.8l0.9-3l0.9-1l0.6-2.2L1,85.4l3.6-3.3l0.2-1.4l0.5-0.8l-1.7-1.7H2.8z"/>
						<path class="st1" d="M383.5,86.1l-1.7-2.2l-2.2-4.5l-1-5.2l2.7-3.6l5.5-0.8l4,0.6l3.5,1.7l1.9-3l3.8,1.6l1,2.9l-0.5,5.2
							l-7.1,3.3l1.9,2.6l-4.5,0.3l-3.7,1.7L383.5,86.1z"/>
						<path class="st1" d="M5,76.5l0.4-2l-2.7-0.1v-2.8L0.9,70l1.8-5.8L8.2,60l0.2-5.8l1.6-9.1l0.9-1.9l-1.8-1.5L9,40.3l-1.6-1.2
							l-1-7.1l4.3-2.5l17,8.8l17,8.6l0.2,17.6l-3.7-0.3l-1.9,3.2l-1.1,2.7l0.9,1l-1.4,1.3l0.5,1.8L37,76.1l-0.4,1.6l1.5-0.3l0.9,1.7
							v2.5l1.6,1.3l-0.1,1l-2.7,0.7l-2.2,1.7L32.5,91l-4,2l-4.1-0.3l-1.2,0.4l0.4,1.5l-2.2,1.5l-1.8,1.7l-5.4,1.6l-1.1-1l-0.7-0.1
							l-0.8,1.1l-3.5,0.3l0.9-1l-1.3-2.9L7,94l-1.9-0.7l-2.5-2.5l0.9-2l1.9,0.4l1.2-0.3H9L6.8,85L7,82.1l-0.3-2.9L5,76.5z"/>
						<path class="st1" d="M8.3,99.9l3.5-0.3l0.8-1.1l0.7,0.1l1.1,1l5.4-1.6l1.8-1.7l2.2-1.5l-0.4-1.5l1.2-0.4l4.1,0.3l4-2l3.1-4.7
							l2.2-1.7l2.7-0.7l0.5,1.8l2.5,2.7v1.7L42.8,92l0.3,1.3l1.5,1.2l3.2,1.9l2.3,1.7v1.4l2.9,2.2l1.8,1.8l1.1,2.6l3.2,1.7l0.7,1.3
							l-1.4,0.4l-2.7-0.1l-3.2-0.4l-1.6,0.4l-0.6,1l-1.4,0.1l-1.7-0.9l-4.7,2.1l-1.9-0.4l-0.6,0.3l-1.3,2.6l-3.2-0.8l-3.1-0.4
							l-2.7-1.6l-3.5-1.4l-2.3,1.4l-1.7,2.2l-0.4,3l-2.7-0.2l-2.9-0.7l-2.5,2.2l-2.2,3.9l-0.4-1.2l-0.2-1.9L9,117.3L7.3,115
							l-0.4-1.5l-2-2.2l0.3-1.3l-0.4-1.8l0.3-3.3l1-0.8L8.3,99.9z"/>
						<path class="st1" d="M87.8,91.1l0.1,3.3l-0.6,1.3L85,95.8l-1.4,2.4l2.6,0.3l2.2,2.1l0.7,1.7l1.9,1l2.5,4.6l-2.9,2.8l-2.6,2.5
							l-2.6,1.9h-3l-3.4,1l-2.7-0.9l-1.8,1.2l-3.7-2.8l-1-1.8l-2.4,0.9l-2-0.3l-1.1,0.7l-1.9-0.5l-2.6-3.5l-0.7-1.3l-3.2-1.7
							l-1.1-2.6l-1.8-1.8l-2.9-2.2v-1.4l-2.3-1.7l-2.9-1.7l1.3-0.5l1.5-0.8l1.1-3.8l1.2-2l3.1-0.6l0.7,1.2l2.2,2.5l1.2,0.4l1.5-0.7
							l3.1,0.1l0.6,0.9h4.2l0.1-0.9l2.2-0.8l0.4-1.3l1.6-0.9l3.6,2.5l2.2-0.4l2.1-3.1l2.3-2.4l-0.4-2.6l-1-1.3l2.6-0.2l0.3-1l2,0.3
							L84,82.6l0.5,3.1l2.2,1.7l0.5,1.5V91L87.8,91.1z"/>
						<path class="st1" d="M104.5,67.4l2.6,2l2.5-1l1,0.9l2.9,0.1l3.7,1.7l1.1,1.5l1.9,1.4l1.7,2.5l1.5,1.4l-1.5,1.9l-1.4,2l0.3,1.2
							l0.1,1.3l2.4,0.1l1-0.3l0.9,0.8l-0.9,1.5l1.6,2.4l1.6,2.1l1.6,1.5l13.9,5.1h3.6l-12,12.8l-5.5,0.2l-3.8,3l-2.7,0.1l-1.2,1.3
							h-2.9l-1.7-1.4l-3.9,1.8l-1.3,1.8l-2.8-0.3l-0.9-0.5l-1,0.1h-1.3l-5.4-3.6h-3l-1.5-1.4V109l-2.2-0.7l-2.5-4.6l-1.9-1l-0.7-1.7
							l-2.2-2.1l-2.6-0.3l1.4-2.4l2.3-0.1l0.6-1.3L87.8,91l1.3-4.5l2-1.2l0.4-1.8l1.8-3.3l2.6-2.1l1.7-4.3l0.7-3.7l5,0.9L104.5,67.4
							z"/>
						<path class="st1" d="M430.3,248.4c-1,0.9-1.3,3-1.7,4.4v0.3c0.4-0.4,0.9-0.8,1.4-1c5.9-2.4,12.3-3.1,18.6-3.2
							c2.9-0.1,5.7-0.2,8.6-0.3"/>
						<path class="st1" d="M427,240.5l0.4,0.7c4.9-2.2,11.4-1.6,16.5-1.2c6.6,0.5,13.2,1.2,19.8,1.3c10.8,0.1,21.5,0.3,32.3,0.5
							c19.9,0.4,39.8-0.1,59.8-0.5c12.6-0.2,25.2-0.3,37.8,0.7l-0.1-0.2l-3.3-3.8l-2-1.8l-3-2.8l-0.7-4.9l-1,0.7l-1.7-2l-1.7,1
							l-1.7-4.9l-2.4-2.8l0.6-1.1l-2.9-2l-3-2.1l-4.6-2.3l-1.4-3l0.4-2.3l-1.2-3.8l-1.1-0.5l-0.6-2.2l-0.9-3.8l0.4-1.9l-2-1.7
							l-1.4-1.8l-2.7,1.6L554,190l0.1-1.6l-0.3-2.5l-1.5-2.2l-0.2-1.8l-1.1-0.5l-0.3-2.7l-1.2-2.1l-1.6,1.6l-0.1,1.2l-0.8,2.4
							l-1,2.3l0.7,1.4l-0.8,0.9l-0.6,3.3l0.5,2.5l-0.3,1.3l0.6,2.1l-1.3,3.5l-0.5,2.4l-0.9,2l-0.8,2.4l-2.8,1.5l-4.1-1.5l-0.6-1.4
							l-2.2-1.1h-1.2l-3.1-2.6l-2.2-1.5l-3.3-1.4l-3.4-2.4l-0.3-1.2l1.5-2.1l1.2-2.2l-0.5-1.7l1.5-0.1l1.6-1.8l1.1-2.3l-2-2.1
							l-1,0.8l-1.6-0.4l-2.5,1.2l-2.6-1.3l-1.2,0.4l-3.6-1.1l-2.3-1.8l-2.8-1.1l-2.3,0.6l3.1,1.4l0.1,2.2l-3.6,0.8l-2.2-0.5
							l-2.6,1.5l-1.8,2.5l0.7,1.1l-1.9,1.1l-2,3.5l0.9,2.4l-2.7-0.4h-2.7l-2.4-2.6l-3.1-2l-2.1,0.6l-1.9,0.6l-0.1,1.1l-1.9-0.5
							l-0.1,1.2l-2.1,0.7l-1,1.7l-2.3,2.2l-0.5,3.3l-1.9-1l-1.3,2.1l1.5,2.1l-1.8,0.9l-1.8-3.8l-3,3.8l-0.1,2.4l-0.2,1.8l-2.5,2.3
							l-1.1,2.4l-2.3,2l-4.5,1.3l-2.4-0.1l-1.1,0.4l-0.6,1l-2.6,0.5l-3.4,1.7l-1.2-0.6l-1.9,0.4l-3.3,1.7l-2.1,1.9l-3.5,1.5
							l-1.8,3.1l-0.3-3.5l-1.8,3.3l0.5,2.7l-0.6,2.3l-0.9,1.1l-0.5,2.7l1,1.4L427,240.5z"/>
						<path class="st1" d="M160.8,81.3l-0.1-1.2h-1.6l-2,1.5l-2.3,0.4l-2,0.6l-1.4,0.1l-2.4,0.2l-1.5,0.8l-2.1,0.3l-3.7,1.3
							l-4.6,0.5l-4,1.1H131l-1.9-1.8l-0.8-1.8l-1.4-0.8l-1.6,2.3l-0.9,1.5l1.6,2.4l1.6,2.1l1.6,1.5l13.9,5.1h3.6l-12,12.8l-5.5,0.2
							l-3.8,3l-2.7,0.1l-1.2,1.3l-3.7,4.8l0.1,15.4l2.5,3.5l1-1l1-2.2l4.7-5.1l4-3.2l6.4-4.2l4.3-3.4l5-5.8l3.6-4.7l3.6-6.2l2.6-5.4
							l2-4.8l1.2-4.6l0.9-1.6V84L160.8,81.3z"/>
						<path class="st1" d="M357.6,8.5l-0.3-1.8L352.7,6l1.4-2l-2-3l-3,2l-3.6-1.2l-4.9,3.1l-3.9,3.6L333.3,9l1.7,1.5l-0.3,2.9
							l-3.5,0.1l-3.6-0.3L325,14l-3.9-1.8l-0.1-1l-0.4-3.8l-2.6,1l-0.3,2.1l0.6,3l-0.5,1.9l-3.5,0.1l-5.1-1.1l-3.3-0.4l-2.5-2.4
							l-5.8-0.6l-5.5-2.7l-4-2.4L284,4.1l1.7-4.5l2.7-2.2L282.5-6l-4.2-3.1l-0.9-4.2c-4.8,0-9.6,0-14.3,0.1l0.4,0.3l-3.6,2.9
							l0.1,3.5l-4.1,4.9l-2.7,4.9l-4.4,5L243.7,8l-4.7,5l2.8,2.1l0.5,3.6l2.4,2.4l0.8,4h-9.4l-2.8,3.1l5,3.9l1.3,1.8l-2,1.7l5.6,5.5
							l3,0.5l6.2-2.7l0.8,4.2v5.4l1.3,5.7l1.8,8.6l3.9,6l0.7,2.7l1.1,5.4l2.3,4.2l1.5,2l1.6,4.3l2,6l4,4l1.7-1.2l1.4-2.9l3.9-1.2
							l-1.3-1.4l1.9-3.3l2.2-0.2v-7.3l1.8-4.1l-0.2-3.6l-0.9-5.7l1.3-3.3l2-0.2l3.8-1.6l2.1-1.1v-2l4.2-2.9l3.2-2.8l4.8-5.3l6.1-3
							l2.3-2.7l-0.2-3.4l5.2-0.9l2.9,0.1l0.6-1.7l-0.7-3.8l-1.5-3.5l0.7-2.8l-2.6-1.2l0.9-1.7l2.7-1.7l-3.1-2.5l1.5-3.2l3.4,2l2,0.2
							l0.4,3.3l4,0.6l3.9-0.1l2.5,0.8l-2,3.9l-1.9,0.3l-1.3,2.6l2.3,2.4l0.7-2.9h1.2l2.2,7.3l2.1-1.1l-0.4-1.9l1-1.6l0.2-4.8
							l3.3,1.1l1.9-3.8l0.2-2.3l2.3-3.9l-0.1-2.7l5.5-3.3l3,0.9l-0.4-2.9L357.6,8.5z"/>
						<path class="st1" d="M366.7,44.2l-2.5,2l-3,0.2l-1.9,4.8l-1.8,0.8l2.1,3.9l2.7,3.2L364,62l-1.6,3.8l-1.5,0.8l1,2.2l2.8,3.5
							l0.5,2.4l-0.1,2l1.7,3.9l-2.3,4l-2.1,4.4l-0.4-3.2l1.3-3.3l-1.4-2.6l0.3-4.7l-1.7-2.3l-1.4-5.2l-0.8-5.5l-1.8-3.7l-2.8,2.2
							l-4.8,3.1l-2.4-0.4l-2.6-1l1.5-5.5l-0.9-4.2l-3.3-5.2l0.5-1.6l-2.5-0.6l-3-3.7l-0.3-3.6l1.5,0.7l0.1-3.3l2.1-1.1l-0.4-1.9
							l1-1.6l0.2-4.8l3.3,1.1l1.9-3.8l0.2-2.3l2.3-3.9l-0.1-2.7l5.5-3.3l3,0.9l-0.4-2.9l1.5-0.9l-0.3-1.8l2.5-0.4l1.4,2.8l1.9,1.1
							l0.1,3.6l-0.2,3.9l-4,3.9l-0.5,5.5L363,26l1,4.2l2.7,0.9l-1.2,3.8l3.2,1.7l1.8,0.8l3.1-1.3l0.1,1.9l-3.6,2.9l-0.9,1.7
							L366.7,44.2z"/>
						<g>
							<polygon class="st3" points="379.8,79.5 376,77.5 372.3,77.6 372.9,74.2 369.2,74.2 368.9,79 366.6,85.3 365.2,89.1 
								365.5,92.2 368.2,92.3 370,96.2 370.7,99.9 373.1,102.3 375.7,102.8 377.9,105 376.5,106.8 373.7,107.3 373.4,105.1 
								369.9,103.3 369.1,104 367.5,102.4 366.7,100.3 364.5,97.9 362.4,95.8 361.7,98.3 360.9,96 361.4,93.3 362.6,89.2 
								364.7,84.8 367,80.8 365.4,76.8 365.4,74.8 364.9,72.4 362.1,68.9 361.1,66.7 362.6,65.9 364.1,62.1 362.4,59.2 359.7,55.9 
								357.6,52 359.4,51.2 361.3,46.4 364.4,46.2 366.8,44.2 369.3,43.2 371.1,44.6 371.4,47.3 374.2,47.5 373.2,52.2 373.3,56.2 
								377.8,53.5 379,54.3 381.5,54.2 382.4,52.7 385.6,53 388.8,56.6 389.1,60.9 392.5,64.8 392.4,68.5 391,70.4 387,69.8 
								381.5,70.6 378.8,74.3 							"/>
						</g>
						<path class="st1" d="M480.9,95.6l0.4,2.8l0.3,2.4l-1.4,3.9l-1.6-4.3l-2,2.2l1.4,3.1l-1.2,2l-5-2.5l-1.2-3.1l1.3-2l-2.7-2
							l-1.3,1.8l-2-0.2l-3.1,2.4l-0.7-1.2l1.7-3.6l2.7-1.2l2.3-1.6l1.5,1.9l3.2-1.2l0.7-1.9l3-0.1l-0.3-3.3l3.4,2l0.4,2.2
							L480.9,95.6z M470.7,87.6l-1.5,1.4l-1.3,2.7l-1.3,1.3l-2.6-3l0.9-1.1l1.1-1.2l0.5-2.7l2.3-0.3l-0.7,2.9l3.1-4.2L470.7,87.6z
							 M447.4,91.8l-5.7,4.1l2.1-3l3.1-2.6l2.6-3l2.2-4.3l0.8,3.5l-2.8,2.4L447.4,91.8z M461.7,80.7l2.6,1.3h2.7l-0.1,1.8l-2,1.8
							l-2.7,1.3l-0.2-2l0.3-2.2L461.7,80.7z M477.1,79.5l1.2,4.8l-3.3-1.1l0.1,1.4l1,2.7l-2,1l-0.2-3l-1.3-0.2l-0.7-2.6l2.5,0.3
							l-0.1-1.6l-2.6-3.3l4.1,0.1L477.1,79.5z M460.2,75.6l-1.1,3.7l-1.8-2.2l-2.2-3.3l3.6,0.2L460.2,75.6z M459.4,51.7L462,53
							l1.3-1.2l0.4,1.1l-0.7,1.8l1.5,3.2l-1.1,3.7l-2.5,1.5l-0.7,3.5l1,3.5l2.3,0.5l1.9-0.5l5.3,2.4l-0.4,2.4l1.4,1l-0.4,2l-3.3-2.1
							l-1.6-2.3l-1.1,1.6l-2.7-2.6l-3.9,0.6l-2.1-1l0.2-1.8l1.3-1.1l-1.3-1l-0.5,1.6l-2.1-2.5l-0.6-1.9l-0.2-4.2l1.7,1.4l0.4-6.9
							l1.4-4L459.4,51.7z"/>
					</g>
				</g>
			</g>
		</g>
		<g>
			<polygon class="st3" points="470.3,132.4 470.7,135.2 474.1,134.4 475.9,132.2 477.1,132.7 480.3,136 482.5,139.5 482.8,143.1 
				482.3,145.6 482.8,147.4 483.2,150.6 485.1,152 487.2,156.7 487.1,158.5 483.3,158.9 478.2,154.9 471.9,150.7 471.2,148 
				468.1,144.4 467.4,140 465.5,137.1 466.1,133.2 464.9,130.9 465.8,130 			"/>
		</g>
		<polygon class="st4" points="470.2,134 470.5,136.6 473.8,135.6 475,133.9 475.9,134.3 478.1,136.8 479.7,139.6 479.9,142.4 
			479.5,144.3 479.9,145.8 480.1,148.2 481.4,149.4 479.3,151.5 472.2,148.4 471.8,146.2 469.6,143.5 469.1,140 467.8,137.7 
			468.2,134.7 467.4,132.9 468,132.2 		"/>
		<polygon class="st4" points="495.6,196.6 489.7,196.7 485.1,192.3 478.3,187.9 476,184.7 471.9,180.3 469.2,176.3 465.2,168.9 
			460.5,164.4 458.9,159.9 456.9,155.7 452.1,152.4 449.3,147.8 445.3,144.8 439.7,138.9 439.2,136.2 442.6,136.4 459.6,152.8 
			464.9,162.6 474.4,176.2 483.8,184 486.1,186.4 490.3,186 495.8,188.3 		"/>
	</g>
</g>
<rect x="404.2" y="75" class="st5" width="167.4" height="159.5"/>
<g>
	<text transform="matrix(1 0 0 1 484.8623 142.4608)" class="st6 st7 st8">MALASIA</text>
</g>
<g>
	<text transform="matrix(1 0 0 1 420.3723 126.5256)" class="st6 st7 st8">TAILANDIA</text>
</g>
<g>
	<text transform="matrix(1 0 0 1 387.757 190.7626)" class="st6 st7 st8">INDONESIA</text>
</g>
<polygon class="st4" points="472.4,130.2 474.9,132.2 473.4,134.3 471,134.5 470.3,131.8 468.3,131 470.2,129.6 "/>
<polygon class="st9" points="42.1,14.8 34.4,32.3 42.1,28.8 48.1,32.3 "/>
<g>
	<text transform="matrix(1 0 0 1 36.8704 46.7501)" class="st6 st7 st10">N</text>
</g>
<g>
	
		<image style="overflow:visible;enable-background:new    ;" width="797" height="521" xlink:href="mapita-02-02.png"  transform="matrix(0.24 0 0 0.24 802.7247 -1.027)">
	</image>
	<g>
		<text transform="matrix(1 0 0 1 821.1162 61.8694)" class="st6 st7 st8">ÁFRICA</text>
	</g>
	<g>
		<text transform="matrix(1 0 0 1 882.3516 44.0627)" class="st6 st7 st8">ASIA</text>
	</g>
	<g>
		<text transform="matrix(1 0 0 1 866.2363 106.49)" class="st6 st7 st8">OCEANÍA</text>
	</g>
</g>
</svg>
