<?xml version="1.0" encoding="utf-8"?>
<!-- Generator: Adobe Illustrator 25.3.1, SVG Export Plug-In . SVG Version: 6.00 Build 0)  -->
<svg version="1.1" id="Capa_1" xmlns="http://www.w3.org/2000/svg" xmlns:xlink="http://www.w3.org/1999/xlink" x="0px" y="0px"
	 viewBox="0 0 497.59 416.07" style="enable-background:new 0 0 497.59 416.07;" xml:space="preserve">
<style type="text/css">
	.st0{fill:none;stroke:#95C11F;stroke-width:0.5;stroke-miterlimit:10;stroke-dasharray:0.9817,0.9817;}
	.st1{fill:#95C11F;}
	.st2{fill:#FFFFFF;}
	.st3{fill:#575756;}
	.st4{fill:none;stroke:#575756;stroke-linecap:round;stroke-miterlimit:10;stroke-dasharray:0,2.8346;}
	.st5{fill:none;}
	.st6{fill:#1E1E1C;}
	.st7{font-family:"Roboto", sans-serif}
	.st8{font-size:4px;}
	.st9{font-family:"Roboto", sans-serif}
	.st10{fill:none;stroke:#95C11F;stroke-width:0.5;stroke-miterlimit:10;}
</style>
<image style="overflow:visible;" width="4191" height="3461" xlink:href="5849EF1B688E228.png"  transform="matrix(0.1096 0 0 0.1096 20.7429 7.6831)">
</image>
<g>
	<g>
		<line class="st0" x1="198.34" y1="136.78" x2="382.97" y2="50.6"/>
		<g>
			<polygon class="st1" points="200.05,138.74 195.09,138.3 197.95,134.22 			"/>
		</g>
		<g>
			<polygon class="st1" points="383.36,53.16 386.22,49.08 381.25,48.65 			"/>
		</g>
	</g>
</g>
<rect x="232.91" y="90.21" transform="matrix(0.9168 -0.3993 0.3993 0.9168 -13.372 123.1843)" class="st2" width="112.21" height="6.97"/>
<path class="st3" d="M33.91,338.73"/>
<path class="st4" d="M405.43,246.43"/>
<g>
	<rect x="35.06" y="367.53" class="st5" width="81.75" height="27.06"/>
	<text transform="matrix(1 0 0 1 42.3153 372.7773)"><tspan x="0" y="0" class="st6 st7 st8">Mechón de pelo en área </tspan><tspan x="-3.81" y="9" class="st6 st7 st8">genital sólo presente en el </tspan><tspan x="23.89" y="18" class="st6 st7 st8">macho </tspan></text>
</g>
<g>
	<rect x="121.67" y="368.91" class="st5" width="84" height="20.17"/>
	<text transform="matrix(1 0 0 1 124.5495 374.1635)"><tspan x="0" y="0" class="st6 st7 st8">Generalmente la hembra es </tspan><tspan x="0.12" y="9" class="st6 st7 st8">mas pequeña que el macho</tspan></text>
</g>
<g>
	<rect x="401.63" y="371.57" class="st5" width="77.78" height="11.95"/>
	<text transform="matrix(1 0 0 1 416.0016 376.8226)" class="st6 st7 st8">Primates sin cola</text>
</g>
<g>
	<text transform="matrix(0.9168 -0.3993 0.3993 0.9168 241.2161 112.5332)"><tspan x="0" y="0" class="st6 st9 st8">Largo de brazo: hasta 1,5 metros</tspan><tspan x="0" y="9" class="st6 st7 st8">(doble de tamaño que las piernas) </tspan></text>
</g>
<g>
	<g>
		<line class="st10" x1="93.41" y1="343.78" x2="74.6" y2="366.88"/>
		<g>
			<path class="st1" d="M92.65,343.22c0.33-0.4,0.92-0.46,1.32-0.14c0.4,0.33,0.46,0.92,0.14,1.32c-0.33,0.4-0.92,0.46-1.32,0.14
				S92.32,343.62,92.65,343.22z"/>
		</g>
	</g>
</g>
<g>
	<g>
		<line class="st10" x1="199.77" y1="330.21" x2="166.35" y2="366.88"/>
		<g>
			<path class="st1" d="M199.05,329.61c0.35-0.38,0.94-0.41,1.33-0.06c0.38,0.35,0.41,0.94,0.06,1.33
				c-0.35,0.38-0.94,0.41-1.33,0.06C198.73,330.59,198.7,330,199.05,329.61z"/>
		</g>
	</g>
</g>
<g>
	<g>
		<line class="st10" x1="373.63" y1="322.9" x2="437.95" y2="370.9"/>
		<g>
			<path class="st1" d="M373.11,323.68c-0.42-0.31-0.5-0.9-0.19-1.32c0.31-0.42,0.9-0.5,1.32-0.19c0.42,0.31,0.5,0.9,0.19,1.32
				C374.11,323.91,373.52,323.99,373.11,323.68z"/>
		</g>
	</g>
</g>
</svg>
