<?xml version="1.0" encoding="utf-8"?>
<!-- Generator: Adobe Illustrator 25.3.1, SVG Export Plug-In . SVG Version: 6.00 Build 0)  -->
<svg version="1.1" id="Capa_1" xmlns="http://www.w3.org/2000/svg" xmlns:xlink="http://www.w3.org/1999/xlink" x="0px" y="0px"
	 viewBox="0 0 589.82 489.46" style="enable-background:new 0 0 589.82 489.46;" xml:space="preserve">
<style type="text/css">
	.st0{fill:none;stroke:#95C11F;stroke-width:0.5941;stroke-miterlimit:10;stroke-dasharray:1.1664,1.1664;}
	.st1{fill:#95C11F;}
	.st2{fill:#FFFFFF;}
	.st3{fill:#575756;}
	.st4{fill:none;stroke:#575756;stroke-width:1.1881;stroke-linecap:round;stroke-miterlimit:10;stroke-dasharray:0,3.3679;}
	.st5{fill:none;}
	.st6{fill:#1E1E1C;}
	.st7{font-family:"Roboto", sans-serif}
	.st8{font-size:8px;}
	.st9{font-family:"Roboto", sans-serif}
	.st10{fill:none;stroke:#95C11F;stroke-width:0.5941;stroke-miterlimit:10;}

</style>
<image style="overflow:visible;" width="4191" height="3461" xlink:href="EA2987BF05332565.png"  transform="matrix(0.1302 0 0 0.1302 20.7429 8.2848)">
</image>
<g>
	<g>
		<line class="st0" x1="231.75" y1="161.67" x2="451.11" y2="59.27"/>
		<g>
			<polygon class="st1" points="233.79,163.99 227.89,163.48 231.28,158.62 			"/>
		</g>
		<g>
			<polygon class="st1" points="451.57,62.32 454.97,57.47 449.07,56.95 			"/>
		</g>
	</g>
</g>
<rect x="272.82" y="106.33" transform="matrix(0.9168 -0.3993 0.3993 0.9168 -15.8753 144.7298)" class="st2" width="133.32" height="8.28"/>
<path class="st3" d="M36.39,401.61"/>
<path class="st4" d="M477.8,291.95"/>
<g>
	<rect x="37.75" y="435.82" class="st5" width="97.13" height="32.15"/>
	<text transform="matrix(1 0 0 1 46.3741 442.0589)"><tspan x="0" y="0" class="st6 st7 st8">Mechón de pelo en área </tspan><tspan x="-4.53" y="10.69" class="st6 st7 st8">genital sólo presente en el </tspan><tspan x="28.39" y="21.39" class="st6 st7 st8">macho </tspan></text>
</g>
<g>
	<rect x="140.65" y="437.47" class="st5" width="99.8" height="23.96"/>
	<text transform="matrix(1 0 0 1 144.0777 443.7063)"><tspan x="0" y="0" class="st6 st7 st8">Generalmente la hembra es </tspan><tspan x="0.14" y="10.69" class="st6 st7 st8">mas pequeña que el macho</tspan></text>
</g>
<g>
	<rect x="473.28" y="440.63" class="st5" width="92.41" height="14.2"/>
	<text transform="matrix(1 0 0 1 490.358 446.8684)" class="st6 st7 st8">Primates sin cola</text>
</g>
<g>
	<text transform="matrix(0.9168 -0.3993 0.3993 0.9168 282.6908 132.8589)"><tspan x="0" y="0" class="st6 st9 st8">Largo de brazo: hasta 1,5 metros</tspan><tspan x="0" y="10.69" class="st6 st7 st8">(doble de tamaño que las piernas) </tspan></text>
</g>
<g>
	<g>
		<line class="st10" x1="107.08" y1="407.61" x2="84.73" y2="435.06"/>
		<g>
			<path class="st1" d="M106.18,406.94c0.39-0.48,1.09-0.55,1.57-0.16c0.48,0.39,0.55,1.09,0.16,1.57s-1.09,0.55-1.57,0.16
				C105.86,408.13,105.79,407.42,106.18,406.94z"/>
		</g>
	</g>
</g>
<g>
	<g>
		<line class="st10" x1="233.45" y1="391.49" x2="193.74" y2="435.06"/>
		<g>
			<path class="st1" d="M232.59,390.78c0.42-0.46,1.12-0.49,1.58-0.07s0.49,1.12,0.07,1.58c-0.42,0.46-1.12,0.49-1.58,0.07
				C232.21,391.94,232.18,391.23,232.59,390.78z"/>
		</g>
	</g>
</g>
<g>
	<g>
		<line class="st10" x1="440.02" y1="382.8" x2="516.44" y2="439.83"/>
		<g>
			<path class="st1" d="M439.39,383.73c-0.49-0.37-0.6-1.07-0.23-1.56c0.37-0.49,1.07-0.6,1.56-0.23c0.49,0.37,0.6,1.07,0.23,1.56
				C440.59,384,439.89,384.1,439.39,383.73z"/>
		</g>
	</g>
</g>
</svg>
